# xmcd
#
# Track frame offsets:
#	150
#	21372
#	46042
#	68646
#	94092
#	115800
#	141001
#	159821
#	184713
#	201449
#	222686
#	245065
#	265958
#
# Disc length: 3841 seconds
#
# Revision: 8
# Processed by: cddbd v1.5.2PL0 Copyright (c) Steve Scherf et al.
# Submitted via: audiograbber 1.83.01
#
DISCID=bb0eff0d
DTITLE=Joanne K. Rowling - Harry Potter und die Heiligtümer des Todes
DYEAR=2008
DGENRE=Hörbuch
TTITLE0=100
TTITLE1=101
TTITLE2=102
TTITLE3=103
TTITLE4=104
TTITLE5=105
TTITLE6=106
TTITLE7=107
TTITLE8=108
TTITLE9=109
TTITLE10=110
TTITLE11=111
TTITLE12=112
EXTD=glesen von Rufus Beck
EXTT0=
EXTT1=
EXTT2=
EXTT3=
EXTT4=
EXTT5=
EXTT6=
EXTT7=
EXTT8=
EXTT9=
EXTT10=
EXTT11=
EXTT12=
PLAYORDER=
